<svg width="85" height="18" viewBox="0 0 85 18" fill="none" xmlns="http://www.w3.org/2000/svg">
<path d="M8.67676 1.20312L8.68555 9.68457C8.68555 10.3994 8.58594 11.0352 8.38672 11.5918C8.19336 12.1484 7.90918 12.6201 7.53418 13.0068C7.16504 13.3877 6.71094 13.6777 6.17188 13.877C5.63867 14.0762 5.0293 14.1758 4.34375 14.1758C3.69922 14.1758 3.11621 14.0762 2.59473 13.877C2.0791 13.6777 1.63672 13.3877 1.26758 13.0068C0.898438 12.626 0.611328 12.1572 0.40625 11.6006C0.207031 11.0381 0.107422 10.3994 0.107422 9.68457L0.116211 1.20312H2.58594L2.59473 9.68457C2.60059 10.5107 2.75 11.1348 3.04297 11.5566C3.3418 11.9785 3.77539 12.1895 4.34375 12.1895C4.94727 12.1895 5.40723 11.9785 5.72363 11.5566C6.0459 11.1348 6.20996 10.5107 6.21582 9.68457L6.22461 1.20312H8.67676ZM19.5928 9.33301C19.5928 10.0244 19.5107 10.666 19.3467 11.2578C19.1885 11.8496 18.9512 12.3623 18.6348 12.7959C18.3242 13.2236 17.9375 13.5605 17.4746 13.8066C17.0117 14.0527 16.4814 14.1758 15.8838 14.1758C15.374 14.1758 14.9258 14.0879 14.5391 13.9121C14.1523 13.7363 13.8154 13.4902 13.5283 13.1738V17.6562H11.085V4.49023H13.3438L13.4316 5.42188C13.7246 5.07031 14.0703 4.79785 14.4688 4.60449C14.8672 4.41113 15.333 4.31445 15.8662 4.31445C16.4697 4.31445 17.0029 4.43164 17.4658 4.66602C17.9287 4.89453 18.3184 5.22266 18.6348 5.65039C18.9512 6.07227 19.1885 6.58203 19.3467 7.17969C19.5107 7.77148 19.5928 8.42773 19.5928 9.14844V9.33301ZM17.1494 9.14844C17.1494 8.75 17.1113 8.37793 17.0352 8.03223C16.9648 7.68066 16.8506 7.37891 16.6924 7.12695C16.54 6.86914 16.3408 6.66699 16.0947 6.52051C15.8545 6.37402 15.5615 6.30078 15.2158 6.30078C14.7881 6.30078 14.4365 6.38574 14.1611 6.55566C13.8916 6.71973 13.6807 6.9541 13.5283 7.25879V11.2314C13.6807 11.5303 13.8916 11.7705 14.1611 11.9521C14.4365 12.1279 14.7939 12.2158 15.2334 12.2158C15.5791 12.2158 15.8721 12.1396 16.1123 11.9873C16.3584 11.835 16.5576 11.627 16.71 11.3633C16.8623 11.0996 16.9736 10.7949 17.0439 10.4492C17.1143 10.0977 17.1494 9.72559 17.1494 9.33301V9.14844ZM22.3701 0.5H27.6875V12.0137H30.4121V14H22.3701V12.0137H25.2178V2.49512H22.3701V0.5ZM38.6123 14C38.5537 13.8828 38.5039 13.748 38.4629 13.5957C38.4219 13.4434 38.3867 13.2822 38.3574 13.1123C38.2227 13.2588 38.0674 13.3965 37.8916 13.5254C37.7158 13.6543 37.5195 13.7686 37.3027 13.8682C37.0918 13.9619 36.8574 14.0352 36.5996 14.0879C36.3418 14.1465 36.0635 14.1758 35.7646 14.1758C35.2783 14.1758 34.8301 14.1055 34.4199 13.9648C34.0156 13.8242 33.667 13.6279 33.374 13.376C33.0811 13.124 32.8525 12.8252 32.6885 12.4795C32.5244 12.1279 32.4424 11.7471 32.4424 11.3369C32.4424 10.335 32.8145 9.56152 33.5586 9.0166C34.3086 8.46582 35.4248 8.19043 36.9072 8.19043H38.2695V7.62793C38.2695 7.1709 38.1201 6.81055 37.8213 6.54688C37.5225 6.27734 37.0918 6.14258 36.5293 6.14258C36.0312 6.14258 35.668 6.25098 35.4395 6.46777C35.2109 6.67871 35.0967 6.96289 35.0967 7.32031H32.6533C32.6533 6.91602 32.7412 6.53223 32.917 6.16895C33.0986 5.80566 33.3594 5.48633 33.6992 5.21094C34.0449 4.93555 34.4639 4.71875 34.9561 4.56055C35.4541 4.39648 36.0225 4.31445 36.6611 4.31445C37.2354 4.31445 37.7686 4.38477 38.2607 4.52539C38.7588 4.66602 39.1895 4.87402 39.5527 5.14941C39.916 5.4248 40.2002 5.77344 40.4053 6.19531C40.6104 6.61133 40.7129 7.09473 40.7129 7.64551V11.7236C40.7129 12.2334 40.7451 12.6553 40.8096 12.9893C40.874 13.3232 40.9678 13.6104 41.0908 13.8506V14H38.6123ZM36.2832 12.2861C36.5293 12.2861 36.7578 12.2568 36.9688 12.1982C37.1797 12.1396 37.3701 12.0635 37.54 11.9697C37.71 11.876 37.8564 11.7705 37.9795 11.6533C38.1025 11.5303 38.1992 11.4072 38.2695 11.2842V9.64941H37.0215C36.6406 9.64941 36.3154 9.6875 36.0459 9.76367C35.7764 9.83398 35.5566 9.93652 35.3867 10.0713C35.2168 10.2002 35.0908 10.3584 35.0088 10.5459C34.9268 10.7275 34.8857 10.9268 34.8857 11.1436C34.8857 11.4717 35 11.7441 35.2285 11.9609C35.4629 12.1777 35.8145 12.2861 36.2832 12.2861ZM49.5459 12.6641C49.2236 13.1387 48.834 13.5107 48.377 13.7803C47.9258 14.0498 47.4307 14.1846 46.8916 14.1846C46.3994 14.1846 45.9482 14.1084 45.5381 13.9561C45.1279 13.8037 44.7764 13.5635 44.4834 13.2354C44.1904 12.9014 43.9619 12.4795 43.7979 11.9697C43.6396 11.4541 43.5605 10.8359 43.5605 10.1152V4.49023H46.0039V10.1328C46.0039 10.5195 46.0303 10.8447 46.083 11.1084C46.1416 11.3721 46.2324 11.5859 46.3555 11.75C46.4785 11.9082 46.6396 12.0225 46.8389 12.0928C47.0381 12.1631 47.2812 12.1982 47.5684 12.1982C48.0547 12.1982 48.4502 12.1074 48.7549 11.9258C49.0596 11.7383 49.291 11.4834 49.4492 11.1611V4.49023H51.9014V14H49.6865L49.5459 12.6641ZM56.5068 4.49023L56.6562 5.80859C56.9961 5.33398 57.4092 4.96777 57.8955 4.70996C58.3818 4.44629 58.9209 4.31445 59.5127 4.31445C59.9932 4.31445 60.4326 4.38477 60.8311 4.52539C61.2295 4.66602 61.5723 4.8916 61.8594 5.20215C62.1523 5.50684 62.3779 5.90234 62.5361 6.38867C62.7002 6.86914 62.7822 7.45508 62.7822 8.14648V14H60.3389V8.18164C60.3389 7.80664 60.2949 7.49902 60.207 7.25879C60.125 7.0127 60.0049 6.81934 59.8467 6.67871C59.6885 6.53809 59.498 6.44141 59.2754 6.38867C59.0527 6.33008 58.8008 6.30078 58.5195 6.30078C58.1035 6.30078 57.749 6.38574 57.4561 6.55566C57.1631 6.71973 56.9258 6.94824 56.7441 7.24121V14H54.292V4.49023H56.5068ZM69.3125 12.2246C69.5527 12.2246 69.7812 12.1895 69.998 12.1191C70.2148 12.0488 70.4053 11.9492 70.5693 11.8203C70.7334 11.6914 70.8594 11.5361 70.9473 11.3545C71.041 11.1729 71.082 10.9707 71.0703 10.748H73.373C73.3848 11.2402 73.2822 11.6973 73.0654 12.1191C72.8545 12.541 72.5645 12.9043 72.1953 13.209C71.8262 13.5137 71.3955 13.7539 70.9033 13.9297C70.417 14.0996 69.9014 14.1846 69.3564 14.1846C68.6182 14.1846 67.9707 14.0615 67.4141 13.8154C66.8574 13.5635 66.3916 13.2207 66.0166 12.7871C65.6475 12.3535 65.3662 11.8467 65.1729 11.2666C64.9854 10.6807 64.8916 10.0537 64.8916 9.38574V9.12207C64.8916 8.4541 64.9854 7.83008 65.1729 7.25C65.3604 6.66406 65.6416 6.1543 66.0166 5.7207C66.3916 5.28711 66.8545 4.94434 67.4053 4.69238C67.9619 4.44043 68.6064 4.31445 69.3389 4.31445C69.9248 4.31445 70.4668 4.40234 70.9648 4.57812C71.4629 4.75391 71.8906 5.00293 72.248 5.3252C72.6113 5.6416 72.8926 6.02832 73.0918 6.48535C73.291 6.93652 73.3848 7.44336 73.373 8.00586H71.0703C71.082 7.77148 71.0469 7.54883 70.9648 7.33789C70.8828 7.12695 70.7627 6.94531 70.6045 6.79297C70.4463 6.64062 70.2559 6.52051 70.0332 6.43262C69.8105 6.33887 69.5674 6.29199 69.3037 6.29199C68.917 6.29199 68.5977 6.37109 68.3457 6.5293C68.0938 6.6875 67.8916 6.89844 67.7393 7.16211C67.5928 7.42578 67.4873 7.72754 67.4229 8.06738C67.3643 8.40723 67.335 8.75879 67.335 9.12207V9.38574C67.335 9.75488 67.3643 10.1123 67.4229 10.458C67.4814 10.7979 67.584 11.0996 67.7305 11.3633C67.8828 11.6211 68.085 11.8291 68.3369 11.9873C68.5947 12.1455 68.9199 12.2246 69.3125 12.2246ZM78.3564 5.7998C78.6729 5.33691 79.0566 4.97363 79.5078 4.70996C79.9648 4.44629 80.4746 4.31445 81.0371 4.31445C81.5352 4.31445 81.9922 4.39062 82.4082 4.54297C82.8242 4.68945 83.1816 4.9209 83.4805 5.2373C83.7793 5.55371 84.0107 5.96094 84.1748 6.45898C84.3447 6.95117 84.4297 7.5459 84.4297 8.24316V14H81.9863V8.22559C81.9863 7.88574 81.9424 7.59277 81.8545 7.34668C81.7725 7.10059 81.6523 6.90137 81.4941 6.74902C81.3359 6.59668 81.1455 6.48535 80.9229 6.41504C80.7002 6.33887 80.4482 6.30078 80.167 6.30078C79.7568 6.30078 79.3994 6.37402 79.0947 6.52051C78.7959 6.66699 78.5498 6.87207 78.3564 7.13574V14H75.9131V0.5H78.3564V5.7998Z" fill="white"/>
</svg>
